<svg width="32" height="33" viewBox="0 0 32 33" fill="none" xmlns="http://www.w3.org/2000/svg">
<mask id="path-1-inside-1_0_4" fill="white">
<path d="M29.4637 25.4309C24.6915 32.8667 14.7949 35.026 7.35908 30.2537C-0.0767338 25.4815 -2.23599 15.5849 2.53625 8.14907C7.30849 0.713259 17.2051 -1.44599 24.6409 3.32625C32.0767 8.09849 34.236 17.9951 29.4637 25.4309ZM3.7048 8.89903C-0.653253 15.6895 1.3186 24.7271 8.10904 29.0852C14.8995 33.4432 23.9371 31.4714 28.2952 24.6809C32.6532 17.8905 30.6814 8.85285 23.8909 4.4948C17.1005 0.136746 8.06284 2.10859 3.7048 8.89903Z"/>
</mask>
<path d="M29.4637 25.4309C24.6915 32.8667 14.7949 35.026 7.35908 30.2537C-0.0767338 25.4815 -2.23599 15.5849 2.53625 8.14907C7.30849 0.713259 17.2051 -1.44599 24.6409 3.32625C32.0767 8.09849 34.236 17.9951 29.4637 25.4309ZM3.7048 8.89903C-0.653253 15.6895 1.3186 24.7271 8.10904 29.0852C14.8995 33.4432 23.9371 31.4714 28.2952 24.6809C32.6532 17.8905 30.6814 8.85285 23.8909 4.4948C17.1005 0.136746 8.06284 2.10859 3.7048 8.89903Z" stroke="#212121" stroke-width="0.31974" mask="url(#path-1-inside-1_0_4)"/>
<mask id="path-2-inside-2_0_4" fill="white">
<path d="M29.4637 24.6408C24.6915 32.0766 14.7949 34.2359 7.35908 29.4636C-0.0767338 24.6914 -2.23599 14.7948 2.53625 7.35899C7.30849 -0.0768216 17.2051 -2.23607 24.6409 2.53617C32.0767 7.30841 34.236 17.205 29.4637 24.6408ZM3.7048 8.10895C-0.653253 14.8994 1.3186 23.937 8.10904 28.2951C14.8995 32.6531 23.9371 30.6813 28.2952 23.8908C32.6532 17.1004 30.6814 8.06277 23.8909 3.70472C17.1005 -0.653335 8.06284 1.31851 3.7048 8.10895Z"/>
</mask>
<path d="M29.4637 24.6408C24.6915 32.0766 14.7949 34.2359 7.35908 29.4636C-0.0767338 24.6914 -2.23599 14.7948 2.53625 7.35899C7.30849 -0.0768216 17.2051 -2.23607 24.6409 2.53617C32.0767 7.30841 34.236 17.205 29.4637 24.6408ZM3.7048 8.10895C-0.653253 14.8994 1.3186 23.937 8.10904 28.2951C14.8995 32.6531 23.9371 30.6813 28.2952 23.8908C32.6532 17.1004 30.6814 8.06277 23.8909 3.70472C17.1005 -0.653335 8.06284 1.31851 3.7048 8.10895Z" stroke="#212121" stroke-width="0.31974" mask="url(#path-2-inside-2_0_4)"/>
</svg>
