<svg width="33" height="30" viewBox="0 0 33 30" fill="none" xmlns="http://www.w3.org/2000/svg">
<path d="M26.2227 6.16129C24.95 4.99511 23.4355 4.07004 21.7668 3.43965C20.0981 2.80926 18.3085 2.48606 16.5014 2.48879C14.694 2.48622 12.904 2.80947 11.2349 3.43984C9.56582 4.07022 8.05078 4.9952 6.77744 6.16129C1.41631 11.0338 1.41631 18.965 6.77744 23.8388C8.0508 25.0052 9.56604 25.9304 11.2354 26.5608C12.9048 27.1912 14.6951 27.5142 16.5028 27.5113C18.3097 27.5142 20.0993 27.1912 21.768 26.561C23.4367 25.9308 24.9513 25.006 26.2241 23.84C31.5852 18.9675 31.5852 11.0363 26.2227 6.16129ZM16.7489 5.00004H16.2553C16.3392 4.99879 16.4189 4.98879 16.5028 4.98879C16.5867 4.98879 16.6651 4.99879 16.7489 5.00004ZM25.0842 21.25H22.0001L20.2703 24.395C19.0636 24.8003 17.7878 25.0089 16.5014 25.0113C15.2127 25.0091 13.9345 24.8001 12.7257 24.3938L11.0001 21.2625H7.92694C6.79316 19.9811 6.02643 18.4642 5.69531 16.8475L8.25006 13.75L6.57806 10.7088C7.11157 9.67702 7.83673 8.73659 8.72169 7.92879C9.96027 6.79886 11.4784 5.95492 13.1492 5.46754L16.5001 7.50004L19.8523 5.46879C21.5226 5.95652 23.0406 6.79993 24.2798 7.92879C25.1638 8.73562 25.8885 9.67475 26.4221 10.705L24.7501 13.75L27.3048 16.8475C26.9752 18.459 26.2124 19.9714 25.0842 21.25Z" fill="black"/>
<path d="M11.6875 13.75L13.75 18.75H19.25L21.3125 13.75L16.5 10.625L11.6875 13.75Z" fill="black"/>
</svg>
