<svg width="30" height="28" viewBox="0 0 30 28" fill="none" xmlns="http://www.w3.org/2000/svg">
<g clip-path="url(#clip0_107_848)">
<path d="M26.1062 11.4655C29.2365 8.54476 30.0202 4.1527 27.7843 2.06801C25.5493 -0.0188642 20.8454 0.712636 17.7155 3.63339C15.1477 6.03132 14.5698 9.12664 16.1279 11.3811L15.3019 12.1519C15.1557 12.2893 15.0508 12.4601 14.9976 12.6472C14.9445 12.8343 14.945 13.0312 14.9991 13.2181L9.36664 18.4734L6.95492 19.9429C6.95492 19.9429 4.85632 21.9008 2.33961 24.2506C2.11179 24.4623 1.19867 24.7992 1.19867 24.7992C0.902887 24.9283 0.849918 25.21 1.08054 25.4248L2.75867 26.9911C2.98929 27.2063 3.2907 27.1578 3.42898 26.8817C3.42898 26.8817 3.78992 26.029 4.01679 25.8168L8.63304 21.5092L10.2057 19.2578L15.8382 14.0008C16.0384 14.0514 16.2493 14.0519 16.4497 14.0023C16.6502 13.9527 16.8331 13.8547 16.9801 13.7182L17.806 12.9478C20.2224 14.4024 23.5384 13.8634 26.1062 11.4655ZM18.773 4.22839L19.3946 4.80807L18.5551 5.59164L17.9626 5.0382C18.1459 4.82689 18.339 4.6182 18.5551 4.41651C18.6254 4.35132 18.7009 4.29182 18.773 4.22839ZM23.9316 1.99451L24.4285 2.45826L23.5895 3.24182L22.7499 2.45826L23.1498 2.08595C23.4082 2.0409 23.6693 2.01037 23.9316 1.99451ZM21.9123 7.15789L21.0727 7.94057L20.2332 7.15701L21.0718 6.3752L21.9123 7.15789ZM21.4923 5.9832L22.3318 5.19964L23.1695 5.9832L22.3318 6.76676L21.4923 5.9832ZM20.6537 8.33214L19.8141 9.1157L18.9746 8.33301L19.8141 7.54945L20.6537 8.33214ZM20.6537 10.6819L19.8141 11.4646L18.9746 10.6828L19.8141 9.89839L20.6537 10.6819ZM20.2332 9.50682L21.0727 8.72414L21.9123 9.50682L21.0727 10.2895L20.2332 9.50682ZM22.3318 9.89839L23.1695 10.6828L22.3309 11.4655L21.4913 10.6828L22.3318 9.89839ZM22.3309 9.1157L21.4923 8.33214L22.3318 7.54945L23.1695 8.33301L22.3309 9.1157ZM22.7499 7.15789L23.5895 6.3752L24.428 7.15789L23.5895 7.94057L22.7499 7.15789ZM24.009 5.9832L24.8485 5.19964L25.6871 5.9832L24.8485 6.76676L24.009 5.9832ZM26.1071 6.37432L26.9457 7.15789L26.1071 7.94057L25.2685 7.15701L26.1071 6.37432ZM26.5266 5.9832L27.3662 5.19964L27.8635 5.66382C27.8466 5.909 27.8137 6.15299 27.7651 6.39445L27.3662 6.76676L26.5266 5.9832ZM26.1071 5.59164L25.2685 4.8072L26.1071 4.02451L26.9457 4.8072L26.1071 5.59164ZM24.8485 4.41695L24.009 3.63339L24.8485 2.84982L25.6871 3.63339L24.8485 4.41695ZM24.428 4.80807L23.5895 5.59164L22.7499 4.80807L23.5895 4.02539L24.428 4.80807ZM22.3318 4.41695L21.4923 3.63339L22.3318 2.8507L23.1695 3.63339L22.3318 4.41695ZM21.9123 4.80807L21.0727 5.59164L20.2332 4.8072L21.0727 4.02451L21.9123 4.80807ZM20.6537 5.9832L19.8141 6.76589L18.9755 5.9832L19.8141 5.19964L20.6537 5.9832ZM19.3946 7.15789L18.5551 7.94057L17.7155 7.15789L18.5551 6.3752L19.3946 7.15789ZM18.1355 8.33214L17.297 9.11482L16.4794 8.35314L16.4823 8.31026L17.297 7.54945L18.1355 8.33214ZM18.5551 8.72414L19.3946 9.50682L18.5551 10.2904L17.7155 9.50682L18.5551 8.72414ZM19.3946 11.8571L18.9516 12.2705C18.5836 12.1105 18.2422 11.9017 17.9382 11.6506L18.5551 11.0744L19.3946 11.8571ZM19.8141 12.2491L20.1849 12.5943C19.977 12.5691 19.7713 12.5299 19.5695 12.477L19.8141 12.2491ZM21.0507 12.6201L20.2332 11.8571L21.0727 11.0735L21.9123 11.8571L21.0976 12.6174L21.0507 12.6201ZM22.3318 12.2482L22.4537 12.3619C22.3384 12.3983 22.2226 12.4293 22.1068 12.4586L22.3318 12.2482ZM22.7509 11.8571L23.5895 11.0744L24.1224 11.5709C23.7723 11.7963 23.4146 11.9857 23.0532 12.1397L22.7509 11.8571ZM22.7509 9.50682L23.5895 8.72414L24.428 9.50682L23.5895 10.2904L22.7509 9.50682ZM24.0099 8.33214L24.8485 7.54945L25.688 8.33214L24.8485 9.1157L24.0099 8.33214ZM26.1071 8.72414L26.5707 9.15682C26.3598 9.46876 26.1216 9.77107 25.8638 10.0629L25.268 9.50682L26.1071 8.72414ZM26.5257 8.33301L27.3662 7.54945L27.4065 7.58707C27.2626 7.94845 27.0877 8.30939 26.8815 8.6642L26.5257 8.33301ZM27.7843 4.80807L27.8448 4.75207C27.8499 4.79582 27.8593 4.83739 27.8635 4.88157L27.7843 4.80807ZM27.3662 4.41695L26.5266 3.63339L27.1384 3.06201C27.3952 3.36039 27.5841 3.70951 27.706 4.09976L27.3662 4.41695ZM26.1071 3.24182L25.2685 2.45826L25.6084 2.14107C26.026 2.25482 26.4001 2.43114 26.7193 2.67045L26.1071 3.24182ZM24.8485 2.06714L24.7702 1.99407C24.8176 1.99757 24.8616 2.00676 24.908 2.01201L24.8485 2.06714ZM21.9123 2.45826L21.0727 3.24182L20.7179 2.91064C21.0976 2.71814 21.4848 2.55495 21.872 2.4202L21.9123 2.45826ZM20.6537 3.63339L19.8141 4.41695L19.2184 3.86089C19.5267 3.62168 19.8511 3.40117 20.1896 3.2007L20.6537 3.63339ZM18.1355 5.9832L17.297 6.76676L16.9941 6.48414C17.1591 6.14682 17.3616 5.81257 17.6035 5.48576L18.1355 5.9832ZM16.877 7.15789L16.6524 7.36745C16.6829 7.25939 16.7166 7.1522 16.7555 7.04414L16.877 7.15789ZM16.877 9.50682L16.6327 9.7352C16.5762 9.54706 16.5342 9.35538 16.5071 9.16164L16.877 9.50682ZM17.297 9.89839L18.1355 10.6819L17.5187 11.259C17.2493 10.9751 17.0252 10.6564 16.8535 10.3127L17.297 9.89839ZM24.6029 11.2354L24.0095 10.6819L24.848 9.89839L25.4696 10.4794C25.4021 10.5468 25.3388 10.6163 25.268 10.6819C25.0524 10.8836 24.8293 11.0643 24.6029 11.2354ZM18.4426 17.2129C18.0094 17.6176 17.7661 18.1663 17.7661 18.7383C17.7661 19.3103 18.0094 19.859 18.4426 20.2636L21.7102 17.2129C21.2768 16.8087 20.6891 16.5816 20.0764 16.5816C19.4637 16.5816 18.876 16.8087 18.4426 17.2129ZM23.3443 18.7372L22.5277 17.9759L19.2591 21.0258L20.0757 21.7879L22.5268 27.1249L23.3443 26.3628L22.8545 25.2962L23.6719 24.5332L24.3652 25.4099L25.1827 24.6469L24.489 23.7711L25.3065 23.0081L26.2037 23.6941L27.0202 22.9319L26.123 22.2459L27.1037 21.3307L28.2465 21.7879L29.0626 21.0258L23.3443 18.7372ZM23.6719 19.9583L23.4259 20.1879L22.5268 19.5002L23.6719 19.9583ZM21.384 22.0946L20.8932 21.0258L21.5879 21.9034L21.384 22.0946ZM22.6088 20.9505L22.4045 21.1413L21.7098 20.2628L22.6088 20.9505ZM22.3637 24.2283L21.8748 23.1625L22.283 22.7814L22.9763 23.6564L22.3637 24.2283ZM23.7938 22.8934L23.1005 22.0184L23.5098 21.6365L24.406 22.3216L23.7938 22.8934ZM25.223 21.5595L24.3268 20.8744L24.8176 20.4163L25.9585 20.8726L25.223 21.5595Z" fill="black"/>
</g>
<defs>
<clipPath id="clip0_107_848">
<rect width="30" height="28" fill="white"/>
</clipPath>
</defs>
</svg>
