<svg width="24" height="21" viewBox="0 0 24 21" fill="none" xmlns="http://www.w3.org/2000/svg">
<path d="M23.2595 12.1589C24.7358 8.96821 24 5.17464 21.0473 2.58681C17.1151 -0.862269 10.7363 -0.862269 6.80409 2.58681L4.17947 4.88756L14.0921 13.5615C16.2527 11.0147 20.2552 10.3872 23.2595 12.1589ZM13.0469 15.4275L2.71719 6.39268C1.43769 8.25051 1.70015 10.6989 3.528 12.3025L5.14495 13.7215L0.317537 17.3879C-0.0855285 17.6955 -0.108963 18.2368 0.270669 18.569L2.77343 20.7632C3.14837 21.0953 3.76703 21.0748 4.11854 20.7221L8.30387 16.4856L9.97706 17.9498C10.9004 18.7577 12.0674 19.2006 13.2719 19.3154C12.9391 18.6182 12.7563 17.8554 12.7563 17.0557C12.7517 16.4897 12.8735 15.9484 13.0469 15.4275ZM19.5007 13.1227C17.0166 13.1227 15.0013 14.8862 15.0013 17.0598C15.0013 19.2334 17.0166 20.9969 19.5007 20.9969C21.9847 20.9969 24 19.2334 24 17.0598C24 14.8862 21.9847 13.1227 19.5007 13.1227Z" fill="black"/>
</svg>
