<svg width="10" height="7" viewBox="0 0 10 7" fill="none" xmlns="http://www.w3.org/2000/svg">
<path d="M9.37868 9.62579e-05L0.489057 0.0827989C0.399057 0.0839017 0.311052 0.108081 0.234516 0.152734C0.157979 0.197386 0.0958109 0.260821 0.0547007 0.336211C0.0135913 0.411601 -0.0049036 0.496091 0.00120869 0.580585C0.00732003 0.66508 0.0378069 0.74638 0.0893871 0.815735L4.5904 6.81581C4.77695 7.06459 5.22044 7.06046 5.40282 6.80825L9.79143 0.725474C9.84223 0.655313 9.87164 0.573414 9.87646 0.488677C9.88129 0.40394 9.86135 0.319604 9.8188 0.244834C9.77626 0.170064 9.71274 0.107717 9.63515 0.0645698C9.55755 0.0214222 9.46885 -0.000876101 9.37868 9.62579e-05Z" fill="black"/>
</svg>
