<svg width="21" height="20" viewBox="0 0 21 20" fill="none" xmlns="http://www.w3.org/2000/svg">
<g clip-path="url(#clip0_107_903)">
<path d="M7.31567 0.657779C5.21744 1.35101 3.40793 2.66679 2.15293 4.41184C0.897934 6.1569 0.263591 8.23925 0.343081 10.353C0.422571 12.4668 1.2117 14.5006 2.59457 16.1557C3.97743 17.8108 5.88114 18.9999 8.02606 19.5484C9.76499 19.9757 11.5869 19.9945 13.3351 19.6031C14.9188 19.2643 16.383 18.5396 17.5843 17.5C18.8346 16.3849 19.7421 14.9663 20.2093 13.3968C20.7171 11.6901 20.8075 9.89517 20.4735 8.14997H10.7085V12.0078H16.3637C16.2507 12.6231 16.0085 13.2103 15.6516 13.7344C15.2947 14.2585 14.8305 14.7086 14.2867 15.0578C13.5961 15.4928 12.8177 15.7855 12.0013 15.9172C11.1825 16.0621 10.3427 16.0621 9.52395 15.9172C8.6941 15.7538 7.90908 15.4276 7.21887 14.9593C6.11005 14.2118 5.27748 13.1498 4.83996 11.925C4.39505 10.6771 4.39505 9.32435 4.83996 8.07653C5.1514 7.20187 5.66624 6.40549 6.34606 5.74684C7.12403 4.97926 8.10896 4.43059 9.1928 4.16102C10.2766 3.89146 11.4175 3.91142 12.4902 4.21872C13.3282 4.4637 14.0945 4.89174 14.728 5.46872C15.3657 4.86455 16.0022 4.25882 16.6377 3.65153C16.9658 3.32497 17.3235 3.01403 17.6467 2.67965C16.6796 1.82259 15.5445 1.15568 14.3064 0.717154C12.0517 -0.0625494 9.58461 -0.0835031 7.31567 0.657779Z" fill="white"/>
<path d="M7.31562 0.65805C9.58438 -0.0837359 12.0514 -0.0633337 14.3063 0.715863C15.5447 1.15737 16.6793 1.82748 17.645 2.68774C17.3169 3.02211 16.9707 3.33461 16.636 3.65961C15.9994 4.26482 15.3634 4.86795 14.728 5.46899C14.0944 4.89201 13.3281 4.46397 12.4901 4.21899C11.4178 3.91061 10.277 3.8895 9.19285 4.15796C8.10873 4.42642 7.12319 4.97408 6.34436 5.74086C5.66454 6.39951 5.1497 7.19589 4.83827 8.07055L1.43726 5.56274C2.65461 3.26361 4.76239 1.50496 7.31562 0.65805Z" fill="#E33629"/>
<path d="M0.534732 8.04688C0.717532 7.18405 1.02102 6.34848 1.43708 5.5625L4.83809 8.07656C4.39318 9.32438 4.39318 10.6772 4.83809 11.925C3.70497 12.7583 2.57129 13.5958 1.43708 14.4375C0.395526 12.463 0.0778712 10.2133 0.534732 8.04688Z" fill="#F8BD00"/>
<path d="M10.7082 8.14844H20.4732C20.8073 9.89365 20.7169 11.6885 20.2091 13.3953C19.7419 14.9648 18.8344 16.3834 17.5841 17.4984C16.4865 16.6828 15.384 15.8734 14.2865 15.0578C14.8306 14.7082 15.2951 14.2576 15.652 13.733C16.0089 13.2084 16.2509 12.6205 16.3635 12.0047H10.7082C10.7066 10.7203 10.7082 9.43437 10.7082 8.14844Z" fill="#587DBD"/>
<path d="M1.43555 14.4373C2.56977 13.604 3.70344 12.7665 4.83656 11.9248C5.27495 13.1501 6.10871 14.2121 7.21875 14.9592C7.91111 15.4252 8.69782 15.7488 9.52875 15.9092C10.3475 16.0542 11.1873 16.0542 12.0061 15.9092C12.8225 15.7776 13.6009 15.4849 14.2915 15.0498C15.3891 15.8654 16.4916 16.6748 17.5891 17.4904C16.388 18.5306 14.9238 19.2559 13.3399 19.5951C11.5917 19.9865 9.7698 19.9678 8.03086 19.5404C6.65553 19.1907 5.37087 18.5742 4.25742 17.7295C3.0789 16.8384 2.11633 15.7154 1.43555 14.4373Z" fill="#319F43"/>
</g>
<defs>
<clipPath id="clip0_107_903">
<rect width="21" height="20" fill="white"/>
</clipPath>
</defs>
</svg>
