<svg width="20" height="20" viewBox="0 0 20 20" fill="none" xmlns="http://www.w3.org/2000/svg">
<path d="M7.4226 17.226C7.26427 17.226 7.10593 17.1677 6.98093 17.0427C6.73927 16.801 6.73927 16.401 6.98093 16.1593L12.4143 10.726C12.8143 10.326 12.8143 9.67599 12.4143 9.27599L6.98093 3.84266C6.73927 3.60099 6.73927 3.20099 6.98093 2.95933C7.2226 2.71766 7.6226 2.71766 7.86427 2.95933L13.2976 8.39266C13.7226 8.81766 13.9643 9.39266 13.9643 10.001C13.9643 10.6093 13.7309 11.1843 13.2976 11.6093L7.86427 17.0427C7.73927 17.1593 7.58093 17.226 7.4226 17.226Z" fill="#292D32"/>
</svg>
